<mxfile host="app.diagrams.net" modified="2023-10-13T10:14:15.315Z" agent="Mozilla/5.0 (Windows NT 10.0; Win64; x64; rv:109.0) Gecko/20100101 Firefox/118.0" etag="qDVJwZ1RkaNL7Fx8zsFQ" version="21.7.5" type="github">
  <diagram id="C5RBs43oDa-KdzZeNtuy" name="Page-1">
    <mxGraphModel dx="1434" dy="764" grid="1" gridSize="10" guides="1" tooltips="1" connect="1" arrows="1" fold="1" page="1" pageScale="1" pageWidth="827" pageHeight="1169" math="0" shadow="0">
      <root>
        <mxCell id="WIyWlLk6GJQsqaUBKTNV-0" />
        <mxCell id="WIyWlLk6GJQsqaUBKTNV-1" parent="WIyWlLk6GJQsqaUBKTNV-0" />
        <mxCell id="-7ZSWxGNlsJKucX61rwI-12" style="edgeStyle=orthogonalEdgeStyle;rounded=0;orthogonalLoop=1;jettySize=auto;html=1;entryX=0.5;entryY=0;entryDx=0;entryDy=0;" edge="1" parent="WIyWlLk6GJQsqaUBKTNV-1" source="WIyWlLk6GJQsqaUBKTNV-3" target="-7ZSWxGNlsJKucX61rwI-10">
          <mxGeometry relative="1" as="geometry" />
        </mxCell>
        <mxCell id="WIyWlLk6GJQsqaUBKTNV-3" value="MAC changed" style="rounded=1;whiteSpace=wrap;html=1;fontSize=12;glass=0;strokeWidth=1;shadow=0;" parent="WIyWlLk6GJQsqaUBKTNV-1" vertex="1">
          <mxGeometry x="80" y="20" width="120" height="40" as="geometry" />
        </mxCell>
        <mxCell id="-7ZSWxGNlsJKucX61rwI-14" value="Yes" style="edgeStyle=orthogonalEdgeStyle;rounded=0;orthogonalLoop=1;jettySize=auto;html=1;entryX=0;entryY=0.5;entryDx=0;entryDy=0;" edge="1" parent="WIyWlLk6GJQsqaUBKTNV-1" source="-7ZSWxGNlsJKucX61rwI-10" target="-7ZSWxGNlsJKucX61rwI-21">
          <mxGeometry relative="1" as="geometry">
            <mxPoint x="330" y="200" as="targetPoint" />
          </mxGeometry>
        </mxCell>
        <mxCell id="-7ZSWxGNlsJKucX61rwI-16" value="No" style="edgeStyle=orthogonalEdgeStyle;rounded=0;orthogonalLoop=1;jettySize=auto;html=1;entryX=0.5;entryY=0;entryDx=0;entryDy=0;" edge="1" parent="WIyWlLk6GJQsqaUBKTNV-1" source="-7ZSWxGNlsJKucX61rwI-10" target="-7ZSWxGNlsJKucX61rwI-15">
          <mxGeometry relative="1" as="geometry" />
        </mxCell>
        <mxCell id="-7ZSWxGNlsJKucX61rwI-10" value="root/no_pass" style="rhombus;whiteSpace=wrap;html=1;shadow=0;fontFamily=Helvetica;fontSize=12;align=center;strokeWidth=1;spacing=6;spacingTop=-4;" vertex="1" parent="WIyWlLk6GJQsqaUBKTNV-1">
          <mxGeometry x="70" y="110" width="140" height="70" as="geometry" />
        </mxCell>
        <mxCell id="-7ZSWxGNlsJKucX61rwI-17" value="Yes" style="edgeStyle=orthogonalEdgeStyle;rounded=0;orthogonalLoop=1;jettySize=auto;html=1;entryX=0;entryY=0.5;entryDx=0;entryDy=0;" edge="1" parent="WIyWlLk6GJQsqaUBKTNV-1" source="-7ZSWxGNlsJKucX61rwI-15" target="-7ZSWxGNlsJKucX61rwI-21">
          <mxGeometry relative="1" as="geometry">
            <mxPoint x="330" y="200" as="targetPoint" />
          </mxGeometry>
        </mxCell>
        <mxCell id="-7ZSWxGNlsJKucX61rwI-20" value="No" style="edgeStyle=orthogonalEdgeStyle;rounded=0;orthogonalLoop=1;jettySize=auto;html=1;entryX=0.5;entryY=0;entryDx=0;entryDy=0;" edge="1" parent="WIyWlLk6GJQsqaUBKTNV-1" source="-7ZSWxGNlsJKucX61rwI-15" target="-7ZSWxGNlsJKucX61rwI-19">
          <mxGeometry relative="1" as="geometry" />
        </mxCell>
        <mxCell id="-7ZSWxGNlsJKucX61rwI-15" value="user/pass(db)" style="rhombus;whiteSpace=wrap;html=1;shadow=0;fontFamily=Helvetica;fontSize=12;align=center;strokeWidth=1;spacing=6;spacingTop=-4;" vertex="1" parent="WIyWlLk6GJQsqaUBKTNV-1">
          <mxGeometry x="70" y="230" width="140" height="70" as="geometry" />
        </mxCell>
        <mxCell id="-7ZSWxGNlsJKucX61rwI-19" value="do nothing (camera can not be connected automatically)" style="rounded=1;whiteSpace=wrap;html=1;fontSize=12;glass=0;strokeWidth=1;shadow=0;" vertex="1" parent="WIyWlLk6GJQsqaUBKTNV-1">
          <mxGeometry x="60" y="350" width="160" height="70" as="geometry" />
        </mxCell>
        <mxCell id="-7ZSWxGNlsJKucX61rwI-25" value="Yes" style="edgeStyle=orthogonalEdgeStyle;rounded=0;orthogonalLoop=1;jettySize=auto;html=1;entryX=0.5;entryY=0;entryDx=0;entryDy=0;" edge="1" parent="WIyWlLk6GJQsqaUBKTNV-1" source="-7ZSWxGNlsJKucX61rwI-21" target="-7ZSWxGNlsJKucX61rwI-24">
          <mxGeometry relative="1" as="geometry" />
        </mxCell>
        <mxCell id="-7ZSWxGNlsJKucX61rwI-32" value="No" style="edgeStyle=orthogonalEdgeStyle;rounded=0;orthogonalLoop=1;jettySize=auto;html=1;entryX=0.5;entryY=0;entryDx=0;entryDy=0;" edge="1" parent="WIyWlLk6GJQsqaUBKTNV-1" source="-7ZSWxGNlsJKucX61rwI-21" target="-7ZSWxGNlsJKucX61rwI-22">
          <mxGeometry relative="1" as="geometry" />
        </mxCell>
        <mxCell id="-7ZSWxGNlsJKucX61rwI-21" value="same model/maker" style="rhombus;whiteSpace=wrap;html=1;shadow=0;fontFamily=Helvetica;fontSize=12;align=center;strokeWidth=1;spacing=6;spacingTop=-4;" vertex="1" parent="WIyWlLk6GJQsqaUBKTNV-1">
          <mxGeometry x="290" y="170" width="140" height="70" as="geometry" />
        </mxCell>
        <mxCell id="-7ZSWxGNlsJKucX61rwI-22" value="bug #554" style="rounded=1;whiteSpace=wrap;html=1;fontSize=12;glass=0;strokeWidth=1;shadow=0;" vertex="1" parent="WIyWlLk6GJQsqaUBKTNV-1">
          <mxGeometry x="300" y="350" width="120" height="40" as="geometry" />
        </mxCell>
        <mxCell id="-7ZSWxGNlsJKucX61rwI-29" style="edgeStyle=orthogonalEdgeStyle;rounded=0;orthogonalLoop=1;jettySize=auto;html=1;" edge="1" parent="WIyWlLk6GJQsqaUBKTNV-1" source="-7ZSWxGNlsJKucX61rwI-24" target="-7ZSWxGNlsJKucX61rwI-26">
          <mxGeometry relative="1" as="geometry" />
        </mxCell>
        <mxCell id="-7ZSWxGNlsJKucX61rwI-24" value="&lt;div&gt;update db&lt;/div&gt;" style="rounded=1;whiteSpace=wrap;html=1;fontSize=12;glass=0;strokeWidth=1;shadow=0;" vertex="1" parent="WIyWlLk6GJQsqaUBKTNV-1">
          <mxGeometry x="520" y="350" width="120" height="40" as="geometry" />
        </mxCell>
        <mxCell id="-7ZSWxGNlsJKucX61rwI-30" value="No" style="edgeStyle=orthogonalEdgeStyle;rounded=0;orthogonalLoop=1;jettySize=auto;html=1;entryX=0.5;entryY=0;entryDx=0;entryDy=0;" edge="1" parent="WIyWlLk6GJQsqaUBKTNV-1" source="-7ZSWxGNlsJKucX61rwI-26" target="-7ZSWxGNlsJKucX61rwI-28">
          <mxGeometry relative="1" as="geometry" />
        </mxCell>
        <mxCell id="-7ZSWxGNlsJKucX61rwI-31" value="Yes" style="edgeStyle=orthogonalEdgeStyle;rounded=0;orthogonalLoop=1;jettySize=auto;html=1;entryX=0;entryY=0.5;entryDx=0;entryDy=0;" edge="1" parent="WIyWlLk6GJQsqaUBKTNV-1" source="-7ZSWxGNlsJKucX61rwI-26" target="-7ZSWxGNlsJKucX61rwI-27">
          <mxGeometry relative="1" as="geometry" />
        </mxCell>
        <mxCell id="-7ZSWxGNlsJKucX61rwI-26" value="root/no_pass == user/pass(db)" style="rhombus;whiteSpace=wrap;html=1;shadow=0;fontFamily=Helvetica;fontSize=12;align=center;strokeWidth=1;spacing=6;spacingTop=-4;" vertex="1" parent="WIyWlLk6GJQsqaUBKTNV-1">
          <mxGeometry x="510" y="430" width="140" height="70" as="geometry" />
        </mxCell>
        <mxCell id="-7ZSWxGNlsJKucX61rwI-27" value="do nothing" style="rounded=1;whiteSpace=wrap;html=1;fontSize=12;glass=0;strokeWidth=1;shadow=0;" vertex="1" parent="WIyWlLk6GJQsqaUBKTNV-1">
          <mxGeometry x="700" y="445" width="120" height="40" as="geometry" />
        </mxCell>
        <mxCell id="-7ZSWxGNlsJKucX61rwI-28" value="update camera to user/pass(db)" style="rounded=1;whiteSpace=wrap;html=1;fontSize=12;glass=0;strokeWidth=1;shadow=0;" vertex="1" parent="WIyWlLk6GJQsqaUBKTNV-1">
          <mxGeometry x="520" y="544.5" width="120" height="40" as="geometry" />
        </mxCell>
      </root>
    </mxGraphModel>
  </diagram>
</mxfile>
